G04 #@! TF.GenerationSoftware,KiCad,Pcbnew,8.0.8*
G04 #@! TF.CreationDate,2025-02-16T02:15:22-08:00*
G04 #@! TF.ProjectId,lab1a,6c616231-612e-46b6-9963-61645f706362,rev?*
G04 #@! TF.SameCoordinates,Original*
G04 #@! TF.FileFunction,Legend,Top*
G04 #@! TF.FilePolarity,Positive*
%FSLAX46Y46*%
G04 Gerber Fmt 4.6, Leading zero omitted, Abs format (unit mm)*
G04 Created by KiCad (PCBNEW 8.0.8) date 2025-02-16 02:15:22*
%MOMM*%
%LPD*%
G01*
G04 APERTURE LIST*
%ADD10C,0.150000*%
%ADD11C,0.450000*%
%ADD12C,0.127000*%
%ADD13C,0.120000*%
G04 APERTURE END LIST*
D10*
X196548095Y-92869819D02*
X196548095Y-93679342D01*
X196548095Y-93679342D02*
X196595714Y-93774580D01*
X196595714Y-93774580D02*
X196643333Y-93822200D01*
X196643333Y-93822200D02*
X196738571Y-93869819D01*
X196738571Y-93869819D02*
X196929047Y-93869819D01*
X196929047Y-93869819D02*
X197024285Y-93822200D01*
X197024285Y-93822200D02*
X197071904Y-93774580D01*
X197071904Y-93774580D02*
X197119523Y-93679342D01*
X197119523Y-93679342D02*
X197119523Y-92869819D01*
X197500476Y-92869819D02*
X198119523Y-92869819D01*
X198119523Y-92869819D02*
X197786190Y-93250771D01*
X197786190Y-93250771D02*
X197929047Y-93250771D01*
X197929047Y-93250771D02*
X198024285Y-93298390D01*
X198024285Y-93298390D02*
X198071904Y-93346009D01*
X198071904Y-93346009D02*
X198119523Y-93441247D01*
X198119523Y-93441247D02*
X198119523Y-93679342D01*
X198119523Y-93679342D02*
X198071904Y-93774580D01*
X198071904Y-93774580D02*
X198024285Y-93822200D01*
X198024285Y-93822200D02*
X197929047Y-93869819D01*
X197929047Y-93869819D02*
X197643333Y-93869819D01*
X197643333Y-93869819D02*
X197548095Y-93822200D01*
X197548095Y-93822200D02*
X197500476Y-93774580D01*
X89262829Y-56277250D02*
X90072774Y-56277250D01*
X90072774Y-56277250D02*
X90168062Y-56229607D01*
X90168062Y-56229607D02*
X90215706Y-56181963D01*
X90215706Y-56181963D02*
X90263349Y-56086675D01*
X90263349Y-56086675D02*
X90263349Y-55896100D01*
X90263349Y-55896100D02*
X90215706Y-55800812D01*
X90215706Y-55800812D02*
X90168062Y-55753169D01*
X90168062Y-55753169D02*
X90072774Y-55705525D01*
X90072774Y-55705525D02*
X89262829Y-55705525D01*
X89358117Y-55276730D02*
X89310473Y-55229086D01*
X89310473Y-55229086D02*
X89262829Y-55133799D01*
X89262829Y-55133799D02*
X89262829Y-54895580D01*
X89262829Y-54895580D02*
X89310473Y-54800292D01*
X89310473Y-54800292D02*
X89358117Y-54752648D01*
X89358117Y-54752648D02*
X89453405Y-54705005D01*
X89453405Y-54705005D02*
X89548692Y-54705005D01*
X89548692Y-54705005D02*
X89691624Y-54752648D01*
X89691624Y-54752648D02*
X90263349Y-55324374D01*
X90263349Y-55324374D02*
X90263349Y-54705005D01*
X138066665Y-107784819D02*
X138066665Y-106784819D01*
X138066665Y-106784819D02*
X138447617Y-106784819D01*
X138447617Y-106784819D02*
X138542855Y-106832438D01*
X138542855Y-106832438D02*
X138590474Y-106880057D01*
X138590474Y-106880057D02*
X138638093Y-106975295D01*
X138638093Y-106975295D02*
X138638093Y-107118152D01*
X138638093Y-107118152D02*
X138590474Y-107213390D01*
X138590474Y-107213390D02*
X138542855Y-107261009D01*
X138542855Y-107261009D02*
X138447617Y-107308628D01*
X138447617Y-107308628D02*
X138066665Y-107308628D01*
X139066665Y-107784819D02*
X139066665Y-106784819D01*
X139495236Y-107784819D02*
X139495236Y-107261009D01*
X139495236Y-107261009D02*
X139447617Y-107165771D01*
X139447617Y-107165771D02*
X139352379Y-107118152D01*
X139352379Y-107118152D02*
X139209522Y-107118152D01*
X139209522Y-107118152D02*
X139114284Y-107165771D01*
X139114284Y-107165771D02*
X139066665Y-107213390D01*
X140114284Y-107784819D02*
X140019046Y-107737200D01*
X140019046Y-107737200D02*
X139971427Y-107689580D01*
X139971427Y-107689580D02*
X139923808Y-107594342D01*
X139923808Y-107594342D02*
X139923808Y-107308628D01*
X139923808Y-107308628D02*
X139971427Y-107213390D01*
X139971427Y-107213390D02*
X140019046Y-107165771D01*
X140019046Y-107165771D02*
X140114284Y-107118152D01*
X140114284Y-107118152D02*
X140257141Y-107118152D01*
X140257141Y-107118152D02*
X140352379Y-107165771D01*
X140352379Y-107165771D02*
X140399998Y-107213390D01*
X140399998Y-107213390D02*
X140447617Y-107308628D01*
X140447617Y-107308628D02*
X140447617Y-107594342D01*
X140447617Y-107594342D02*
X140399998Y-107689580D01*
X140399998Y-107689580D02*
X140352379Y-107737200D01*
X140352379Y-107737200D02*
X140257141Y-107784819D01*
X140257141Y-107784819D02*
X140114284Y-107784819D01*
X140733332Y-107118152D02*
X141114284Y-107118152D01*
X140876189Y-106784819D02*
X140876189Y-107641961D01*
X140876189Y-107641961D02*
X140923808Y-107737200D01*
X140923808Y-107737200D02*
X141019046Y-107784819D01*
X141019046Y-107784819D02*
X141114284Y-107784819D01*
X141590475Y-107784819D02*
X141495237Y-107737200D01*
X141495237Y-107737200D02*
X141447618Y-107689580D01*
X141447618Y-107689580D02*
X141399999Y-107594342D01*
X141399999Y-107594342D02*
X141399999Y-107308628D01*
X141399999Y-107308628D02*
X141447618Y-107213390D01*
X141447618Y-107213390D02*
X141495237Y-107165771D01*
X141495237Y-107165771D02*
X141590475Y-107118152D01*
X141590475Y-107118152D02*
X141733332Y-107118152D01*
X141733332Y-107118152D02*
X141828570Y-107165771D01*
X141828570Y-107165771D02*
X141876189Y-107213390D01*
X141876189Y-107213390D02*
X141923808Y-107308628D01*
X141923808Y-107308628D02*
X141923808Y-107594342D01*
X141923808Y-107594342D02*
X141876189Y-107689580D01*
X141876189Y-107689580D02*
X141828570Y-107737200D01*
X141828570Y-107737200D02*
X141733332Y-107784819D01*
X141733332Y-107784819D02*
X141590475Y-107784819D01*
X142352380Y-107784819D02*
X142352380Y-107118152D01*
X142352380Y-106784819D02*
X142304761Y-106832438D01*
X142304761Y-106832438D02*
X142352380Y-106880057D01*
X142352380Y-106880057D02*
X142399999Y-106832438D01*
X142399999Y-106832438D02*
X142352380Y-106784819D01*
X142352380Y-106784819D02*
X142352380Y-106880057D01*
X142828570Y-107118152D02*
X142828570Y-107784819D01*
X142828570Y-107213390D02*
X142876189Y-107165771D01*
X142876189Y-107165771D02*
X142971427Y-107118152D01*
X142971427Y-107118152D02*
X143114284Y-107118152D01*
X143114284Y-107118152D02*
X143209522Y-107165771D01*
X143209522Y-107165771D02*
X143257141Y-107261009D01*
X143257141Y-107261009D02*
X143257141Y-107784819D01*
X143590475Y-107118152D02*
X143971427Y-107118152D01*
X143733332Y-106784819D02*
X143733332Y-107641961D01*
X143733332Y-107641961D02*
X143780951Y-107737200D01*
X143780951Y-107737200D02*
X143876189Y-107784819D01*
X143876189Y-107784819D02*
X143971427Y-107784819D01*
X144685713Y-107737200D02*
X144590475Y-107784819D01*
X144590475Y-107784819D02*
X144399999Y-107784819D01*
X144399999Y-107784819D02*
X144304761Y-107737200D01*
X144304761Y-107737200D02*
X144257142Y-107641961D01*
X144257142Y-107641961D02*
X144257142Y-107261009D01*
X144257142Y-107261009D02*
X144304761Y-107165771D01*
X144304761Y-107165771D02*
X144399999Y-107118152D01*
X144399999Y-107118152D02*
X144590475Y-107118152D01*
X144590475Y-107118152D02*
X144685713Y-107165771D01*
X144685713Y-107165771D02*
X144733332Y-107261009D01*
X144733332Y-107261009D02*
X144733332Y-107356247D01*
X144733332Y-107356247D02*
X144257142Y-107451485D01*
X145161904Y-107784819D02*
X145161904Y-107118152D01*
X145161904Y-107308628D02*
X145209523Y-107213390D01*
X145209523Y-107213390D02*
X145257142Y-107165771D01*
X145257142Y-107165771D02*
X145352380Y-107118152D01*
X145352380Y-107118152D02*
X145447618Y-107118152D01*
X145780952Y-107784819D02*
X145780952Y-107118152D01*
X145780952Y-107308628D02*
X145828571Y-107213390D01*
X145828571Y-107213390D02*
X145876190Y-107165771D01*
X145876190Y-107165771D02*
X145971428Y-107118152D01*
X145971428Y-107118152D02*
X146066666Y-107118152D01*
X146828571Y-107118152D02*
X146828571Y-107784819D01*
X146400000Y-107118152D02*
X146400000Y-107641961D01*
X146400000Y-107641961D02*
X146447619Y-107737200D01*
X146447619Y-107737200D02*
X146542857Y-107784819D01*
X146542857Y-107784819D02*
X146685714Y-107784819D01*
X146685714Y-107784819D02*
X146780952Y-107737200D01*
X146780952Y-107737200D02*
X146828571Y-107689580D01*
X147304762Y-107118152D02*
X147304762Y-108118152D01*
X147304762Y-107165771D02*
X147400000Y-107118152D01*
X147400000Y-107118152D02*
X147590476Y-107118152D01*
X147590476Y-107118152D02*
X147685714Y-107165771D01*
X147685714Y-107165771D02*
X147733333Y-107213390D01*
X147733333Y-107213390D02*
X147780952Y-107308628D01*
X147780952Y-107308628D02*
X147780952Y-107594342D01*
X147780952Y-107594342D02*
X147733333Y-107689580D01*
X147733333Y-107689580D02*
X147685714Y-107737200D01*
X147685714Y-107737200D02*
X147590476Y-107784819D01*
X147590476Y-107784819D02*
X147400000Y-107784819D01*
X147400000Y-107784819D02*
X147304762Y-107737200D01*
X148066667Y-107118152D02*
X148447619Y-107118152D01*
X148209524Y-106784819D02*
X148209524Y-107641961D01*
X148209524Y-107641961D02*
X148257143Y-107737200D01*
X148257143Y-107737200D02*
X148352381Y-107784819D01*
X148352381Y-107784819D02*
X148447619Y-107784819D01*
X149161905Y-107737200D02*
X149066667Y-107784819D01*
X149066667Y-107784819D02*
X148876191Y-107784819D01*
X148876191Y-107784819D02*
X148780953Y-107737200D01*
X148780953Y-107737200D02*
X148733334Y-107641961D01*
X148733334Y-107641961D02*
X148733334Y-107261009D01*
X148733334Y-107261009D02*
X148780953Y-107165771D01*
X148780953Y-107165771D02*
X148876191Y-107118152D01*
X148876191Y-107118152D02*
X149066667Y-107118152D01*
X149066667Y-107118152D02*
X149161905Y-107165771D01*
X149161905Y-107165771D02*
X149209524Y-107261009D01*
X149209524Y-107261009D02*
X149209524Y-107356247D01*
X149209524Y-107356247D02*
X148733334Y-107451485D01*
X149638096Y-107784819D02*
X149638096Y-107118152D01*
X149638096Y-107308628D02*
X149685715Y-107213390D01*
X149685715Y-107213390D02*
X149733334Y-107165771D01*
X149733334Y-107165771D02*
X149828572Y-107118152D01*
X149828572Y-107118152D02*
X149923810Y-107118152D01*
X150780953Y-107784819D02*
X150209525Y-107784819D01*
X150495239Y-107784819D02*
X150495239Y-106784819D01*
X150495239Y-106784819D02*
X150400001Y-106927676D01*
X150400001Y-106927676D02*
X150304763Y-107022914D01*
X150304763Y-107022914D02*
X150209525Y-107070533D01*
X169520476Y-107404819D02*
X169520476Y-106404819D01*
X169520476Y-106404819D02*
X169853809Y-107119104D01*
X169853809Y-107119104D02*
X170187142Y-106404819D01*
X170187142Y-106404819D02*
X170187142Y-107404819D01*
X171139523Y-106404819D02*
X170663333Y-106404819D01*
X170663333Y-106404819D02*
X170615714Y-106881009D01*
X170615714Y-106881009D02*
X170663333Y-106833390D01*
X170663333Y-106833390D02*
X170758571Y-106785771D01*
X170758571Y-106785771D02*
X170996666Y-106785771D01*
X170996666Y-106785771D02*
X171091904Y-106833390D01*
X171091904Y-106833390D02*
X171139523Y-106881009D01*
X171139523Y-106881009D02*
X171187142Y-106976247D01*
X171187142Y-106976247D02*
X171187142Y-107214342D01*
X171187142Y-107214342D02*
X171139523Y-107309580D01*
X171139523Y-107309580D02*
X171091904Y-107357200D01*
X171091904Y-107357200D02*
X170996666Y-107404819D01*
X170996666Y-107404819D02*
X170758571Y-107404819D01*
X170758571Y-107404819D02*
X170663333Y-107357200D01*
X170663333Y-107357200D02*
X170615714Y-107309580D01*
X156690476Y-120304819D02*
X156690476Y-119304819D01*
X156690476Y-119304819D02*
X157023809Y-120019104D01*
X157023809Y-120019104D02*
X157357142Y-119304819D01*
X157357142Y-119304819D02*
X157357142Y-120304819D01*
X158261904Y-119638152D02*
X158261904Y-120304819D01*
X158023809Y-119257200D02*
X157785714Y-119971485D01*
X157785714Y-119971485D02*
X158404761Y-119971485D01*
X156690476Y-116254819D02*
X156690476Y-115254819D01*
X156690476Y-115254819D02*
X157023809Y-115969104D01*
X157023809Y-115969104D02*
X157357142Y-115254819D01*
X157357142Y-115254819D02*
X157357142Y-116254819D01*
X157738095Y-115254819D02*
X158357142Y-115254819D01*
X158357142Y-115254819D02*
X158023809Y-115635771D01*
X158023809Y-115635771D02*
X158166666Y-115635771D01*
X158166666Y-115635771D02*
X158261904Y-115683390D01*
X158261904Y-115683390D02*
X158309523Y-115731009D01*
X158309523Y-115731009D02*
X158357142Y-115826247D01*
X158357142Y-115826247D02*
X158357142Y-116064342D01*
X158357142Y-116064342D02*
X158309523Y-116159580D01*
X158309523Y-116159580D02*
X158261904Y-116207200D01*
X158261904Y-116207200D02*
X158166666Y-116254819D01*
X158166666Y-116254819D02*
X157880952Y-116254819D01*
X157880952Y-116254819D02*
X157785714Y-116207200D01*
X157785714Y-116207200D02*
X157738095Y-116159580D01*
X156690476Y-112204819D02*
X156690476Y-111204819D01*
X156690476Y-111204819D02*
X157023809Y-111919104D01*
X157023809Y-111919104D02*
X157357142Y-111204819D01*
X157357142Y-111204819D02*
X157357142Y-112204819D01*
X157785714Y-111300057D02*
X157833333Y-111252438D01*
X157833333Y-111252438D02*
X157928571Y-111204819D01*
X157928571Y-111204819D02*
X158166666Y-111204819D01*
X158166666Y-111204819D02*
X158261904Y-111252438D01*
X158261904Y-111252438D02*
X158309523Y-111300057D01*
X158309523Y-111300057D02*
X158357142Y-111395295D01*
X158357142Y-111395295D02*
X158357142Y-111490533D01*
X158357142Y-111490533D02*
X158309523Y-111633390D01*
X158309523Y-111633390D02*
X157738095Y-112204819D01*
X157738095Y-112204819D02*
X158357142Y-112204819D01*
X156690476Y-108154819D02*
X156690476Y-107154819D01*
X156690476Y-107154819D02*
X157023809Y-107869104D01*
X157023809Y-107869104D02*
X157357142Y-107154819D01*
X157357142Y-107154819D02*
X157357142Y-108154819D01*
X158357142Y-108154819D02*
X157785714Y-108154819D01*
X158071428Y-108154819D02*
X158071428Y-107154819D01*
X158071428Y-107154819D02*
X157976190Y-107297676D01*
X157976190Y-107297676D02*
X157880952Y-107392914D01*
X157880952Y-107392914D02*
X157785714Y-107440533D01*
X225214285Y-50831009D02*
X225357142Y-50878628D01*
X225357142Y-50878628D02*
X225404761Y-50926247D01*
X225404761Y-50926247D02*
X225452380Y-51021485D01*
X225452380Y-51021485D02*
X225452380Y-51164342D01*
X225452380Y-51164342D02*
X225404761Y-51259580D01*
X225404761Y-51259580D02*
X225357142Y-51307200D01*
X225357142Y-51307200D02*
X225261904Y-51354819D01*
X225261904Y-51354819D02*
X224880952Y-51354819D01*
X224880952Y-51354819D02*
X224880952Y-50354819D01*
X224880952Y-50354819D02*
X225214285Y-50354819D01*
X225214285Y-50354819D02*
X225309523Y-50402438D01*
X225309523Y-50402438D02*
X225357142Y-50450057D01*
X225357142Y-50450057D02*
X225404761Y-50545295D01*
X225404761Y-50545295D02*
X225404761Y-50640533D01*
X225404761Y-50640533D02*
X225357142Y-50735771D01*
X225357142Y-50735771D02*
X225309523Y-50783390D01*
X225309523Y-50783390D02*
X225214285Y-50831009D01*
X225214285Y-50831009D02*
X224880952Y-50831009D01*
X225738095Y-50354819D02*
X226309523Y-50354819D01*
X226023809Y-51354819D02*
X226023809Y-50354819D01*
X227166666Y-51354819D02*
X226595238Y-51354819D01*
X226880952Y-51354819D02*
X226880952Y-50354819D01*
X226880952Y-50354819D02*
X226785714Y-50497676D01*
X226785714Y-50497676D02*
X226690476Y-50592914D01*
X226690476Y-50592914D02*
X226595238Y-50640533D01*
D11*
X200057142Y-69021600D02*
X202342857Y-69021600D01*
X201199999Y-70164457D02*
X201199999Y-67878742D01*
D12*
X194385000Y-98475000D02*
G75*
G02*
X197560000Y-95300000I3175000J0D01*
G01*
X197560000Y-120700000D02*
G75*
G02*
X194385000Y-117525000I0J3175000D01*
G01*
X256615000Y-117525000D02*
G75*
G02*
X253440000Y-120700000I-3175000J0D01*
G01*
X253440000Y-95300000D02*
G75*
G02*
X256615000Y-98475000I0J-3175000D01*
G01*
X194385000Y-117525000D02*
X194385000Y-98475000D01*
X197560000Y-95300000D02*
X253440000Y-95300000D01*
X256615000Y-98475000D02*
X256615000Y-117525000D01*
X253440000Y-120700000D02*
X197560000Y-120700000D01*
X73855000Y-53500000D02*
X73855000Y-69500000D01*
X73855000Y-80500000D02*
X73855000Y-96500000D01*
X87655000Y-97500000D02*
X87655000Y-96500000D01*
X87655000Y-96500000D02*
X87655000Y-80500000D01*
X87655000Y-80500000D02*
X87655000Y-69500000D01*
X87655000Y-69500000D02*
X87655000Y-53500000D01*
X87655000Y-53500000D02*
X87655000Y-52500000D01*
X87655000Y-52500000D02*
X88855000Y-52500000D01*
X88855000Y-52500000D02*
X88855000Y-97500000D01*
X88855000Y-97500000D02*
X87655000Y-97500000D01*
X87655000Y-53500000D02*
X73855000Y-53500000D01*
X87655000Y-96500000D02*
X73855000Y-96500000D01*
X87655000Y-69500000D02*
X73855000Y-69500000D01*
X87655000Y-80500000D02*
X73855000Y-80500000D01*
D13*
X140520000Y-107890000D02*
X140520000Y-109390000D01*
X140520000Y-107890000D02*
X142020000Y-107890000D01*
X140780000Y-108150000D02*
X140780000Y-115390000D01*
X144020000Y-108150000D02*
X140780000Y-108150000D01*
X144020000Y-108150000D02*
X144020000Y-108650000D01*
X144020000Y-108650000D02*
X144780000Y-108650000D01*
X144020000Y-114890000D02*
X144020000Y-115390000D01*
X144020000Y-115390000D02*
X140780000Y-115390000D01*
X144780000Y-108150000D02*
X148020000Y-108150000D01*
X144780000Y-108650000D02*
X144780000Y-108150000D01*
X144780000Y-114890000D02*
X144020000Y-114890000D01*
X144780000Y-115390000D02*
X144780000Y-114890000D01*
X144780000Y-115390000D02*
X148020000Y-115390000D01*
X148020000Y-115390000D02*
X148020000Y-108150000D01*
X148280000Y-108470000D02*
X148280000Y-109790000D01*
X148280000Y-110270000D02*
X148280000Y-111590000D01*
X148280000Y-112070000D02*
X148280000Y-113390000D01*
X148280000Y-113870000D02*
X148280000Y-115070000D01*
X171230000Y-106100000D02*
X171230000Y-104250000D01*
X171230000Y-104250000D02*
X171230000Y-104200000D01*
X171230000Y-104200000D02*
X169380000Y-104200000D01*
X169380000Y-106100000D02*
X171230000Y-106100000D01*
X169380000Y-104200000D02*
X169380000Y-106100000D01*
X158751000Y-117600000D02*
G75*
G02*
X156249000Y-117600000I-1251000J0D01*
G01*
X156249000Y-117600000D02*
G75*
G02*
X158751000Y-117600000I1251000J0D01*
G01*
X158751000Y-113550000D02*
G75*
G02*
X156249000Y-113550000I-1251000J0D01*
G01*
X156249000Y-113550000D02*
G75*
G02*
X158751000Y-113550000I1251000J0D01*
G01*
X158751000Y-109500000D02*
G75*
G02*
X156249000Y-109500000I-1251000J0D01*
G01*
X156249000Y-109500000D02*
G75*
G02*
X158751000Y-109500000I1251000J0D01*
G01*
X158751000Y-105450000D02*
G75*
G02*
X156249000Y-105450000I-1251000J0D01*
G01*
X156249000Y-105450000D02*
G75*
G02*
X158751000Y-105450000I1251000J0D01*
G01*
X196390000Y-51940000D02*
X196390000Y-86060000D01*
X196390000Y-51940000D02*
X255610000Y-51940000D01*
X196390000Y-86060000D02*
X255610000Y-86060000D01*
X255610000Y-51940000D02*
X255610000Y-86060000D01*
M02*
