G04 #@! TF.GenerationSoftware,KiCad,Pcbnew,8.0.8*
G04 #@! TF.CreationDate,2025-02-16T02:15:22-08:00*
G04 #@! TF.ProjectId,lab1a,6c616231-612e-46b6-9963-61645f706362,rev?*
G04 #@! TF.SameCoordinates,Original*
G04 #@! TF.FileFunction,Copper,L2,Bot*
G04 #@! TF.FilePolarity,Positive*
%FSLAX46Y46*%
G04 Gerber Fmt 4.6, Leading zero omitted, Abs format (unit mm)*
G04 Created by KiCad (PCBNEW 8.0.8) date 2025-02-16 02:15:22*
%MOMM*%
%LPD*%
G01*
G04 APERTURE LIST*
G04 Aperture macros list*
%AMRoundRect*
0 Rectangle with rounded corners*
0 $1 Rounding radius*
0 $2 $3 $4 $5 $6 $7 $8 $9 X,Y pos of 4 corners*
0 Add a 4 corners polygon primitive as box body*
4,1,4,$2,$3,$4,$5,$6,$7,$8,$9,$2,$3,0*
0 Add four circle primitives for the rounded corners*
1,1,$1+$1,$2,$3*
1,1,$1+$1,$4,$5*
1,1,$1+$1,$6,$7*
1,1,$1+$1,$8,$9*
0 Add four rect primitives between the rounded corners*
20,1,$1+$1,$2,$3,$4,$5,0*
20,1,$1+$1,$4,$5,$6,$7,0*
20,1,$1+$1,$6,$7,$8,$9,0*
20,1,$1+$1,$8,$9,$2,$3,0*%
G04 Aperture macros list end*
G04 #@! TA.AperFunction,ComponentPad*
%ADD10C,3.200000*%
G04 #@! TD*
G04 #@! TA.AperFunction,ComponentPad*
%ADD11C,1.778000*%
G04 #@! TD*
G04 #@! TA.AperFunction,ComponentPad*
%ADD12C,1.530000*%
G04 #@! TD*
G04 #@! TA.AperFunction,ComponentPad*
%ADD13RoundRect,0.249600X-0.550400X-0.550400X0.550400X-0.550400X0.550400X0.550400X-0.550400X0.550400X0*%
G04 #@! TD*
G04 #@! TA.AperFunction,ComponentPad*
%ADD14C,1.600000*%
G04 #@! TD*
G04 #@! TA.AperFunction,ComponentPad*
%ADD15C,1.400000*%
G04 #@! TD*
G04 #@! TA.AperFunction,ComponentPad*
%ADD16C,2.000000*%
G04 #@! TD*
G04 #@! TA.AperFunction,ComponentPad*
%ADD17R,2.600000X2.600000*%
G04 #@! TD*
G04 #@! TA.AperFunction,ComponentPad*
%ADD18C,2.600000*%
G04 #@! TD*
G04 #@! TA.AperFunction,ComponentPad*
%ADD19R,1.700000X1.700000*%
G04 #@! TD*
G04 #@! TA.AperFunction,ComponentPad*
%ADD20O,1.700000X1.700000*%
G04 #@! TD*
G04 APERTURE END LIST*
D10*
X197560000Y-117525000D03*
X197560000Y-98475000D03*
X253440000Y-98475000D03*
X253440000Y-117525000D03*
D11*
X196290000Y-114223000D03*
X196290000Y-111683000D03*
X196290000Y-109143000D03*
X196290000Y-106603000D03*
X196290000Y-104063000D03*
X196290000Y-101523000D03*
X254583000Y-114223000D03*
X254583000Y-111683000D03*
X254583000Y-109143000D03*
X254583000Y-106603000D03*
X254583000Y-104063000D03*
X254583000Y-101523000D03*
X201370000Y-119303000D03*
X201370000Y-116763000D03*
X203910000Y-119303000D03*
X203910000Y-116763000D03*
X206450000Y-119303000D03*
X206450000Y-116763000D03*
X208990000Y-119303000D03*
X208990000Y-116763000D03*
X201370000Y-114223000D03*
X203910000Y-114223000D03*
X206450000Y-114223000D03*
X208990000Y-114223000D03*
X214070000Y-119303000D03*
X214070000Y-116763000D03*
X216610000Y-119303000D03*
X216610000Y-116763000D03*
X219150000Y-119303000D03*
X219150000Y-116763000D03*
X221690000Y-119303000D03*
X221690000Y-116763000D03*
X214070000Y-114223000D03*
X216610000Y-114223000D03*
X219150000Y-114223000D03*
X221690000Y-114223000D03*
X229310000Y-119303000D03*
X229310000Y-116763000D03*
X231850000Y-119303000D03*
X231850000Y-116763000D03*
X234390000Y-119303000D03*
X234390000Y-116763000D03*
X236930000Y-119303000D03*
X236930000Y-116763000D03*
X229310000Y-114223000D03*
X231850000Y-114223000D03*
X234390000Y-114223000D03*
X236930000Y-114223000D03*
X242010000Y-119303000D03*
X242010000Y-116763000D03*
X244550000Y-119303000D03*
X244550000Y-116763000D03*
X247090000Y-119303000D03*
X247090000Y-116763000D03*
X249630000Y-119303000D03*
X249630000Y-116763000D03*
X242010000Y-114223000D03*
X244550000Y-114223000D03*
X247090000Y-114223000D03*
X249630000Y-114223000D03*
D12*
X93125000Y-73730000D03*
X93125000Y-76270000D03*
X93125000Y-78810000D03*
X93125000Y-71190000D03*
D13*
X143000000Y-110500000D03*
D14*
X143000000Y-113040000D03*
X145800000Y-113040000D03*
X145800000Y-110500000D03*
D15*
X170330000Y-105150000D03*
D16*
X157500000Y-117600000D03*
X157500000Y-113550000D03*
X157500000Y-109500000D03*
X157500000Y-105450000D03*
D17*
X198200000Y-69000000D03*
D18*
X253800000Y-69000000D03*
D19*
X108370000Y-48770000D03*
D20*
X108370000Y-46230000D03*
X110910000Y-48770000D03*
X110910000Y-46230000D03*
X113450000Y-48770000D03*
X113450000Y-46230000D03*
X115990000Y-48770000D03*
X115990000Y-46230000D03*
X118530000Y-48770000D03*
X118530000Y-46230000D03*
X121070000Y-48770000D03*
X121070000Y-46230000D03*
X123610000Y-48770000D03*
X123610000Y-46230000D03*
X126150000Y-48770000D03*
X126150000Y-46230000D03*
X128690000Y-48770000D03*
X128690000Y-46230000D03*
X131230000Y-48770000D03*
X131230000Y-46230000D03*
X133770000Y-48770000D03*
X133770000Y-46230000D03*
X136310000Y-48770000D03*
X136310000Y-46230000D03*
X138850000Y-48770000D03*
X138850000Y-46230000D03*
X141390000Y-48770000D03*
X141390000Y-46230000D03*
X143930000Y-48770000D03*
X143930000Y-46230000D03*
X146470000Y-48770000D03*
X146470000Y-46230000D03*
X149010000Y-48770000D03*
X149010000Y-46230000D03*
X151550000Y-48770000D03*
X151550000Y-46230000D03*
X154090000Y-48770000D03*
X154090000Y-46230000D03*
X156630000Y-48770000D03*
X156630000Y-46230000D03*
M02*
