M48
; DRILL file {KiCad 8.0.8} date 2025-02-16T02:15:37-0800
; FORMAT={-:-/ absolute / inch / decimal}
; #@! TF.CreationDate,2025-02-16T02:15:37-08:00
; #@! TF.GenerationSoftware,Kicad,Pcbnew,8.0.8
; #@! TF.FileFunction,Plated,1,2,PTH
FMAT,2
INCH
; #@! TA.AperFunction,Plated,PTH,ComponentDrill
T1C0.0276
; #@! TA.AperFunction,Plated,PTH,ComponentDrill
T2C0.0315
; #@! TA.AperFunction,Plated,PTH,ComponentDrill
T3C0.0394
; #@! TA.AperFunction,Plated,PTH,ComponentDrill
T4C0.0400
; #@! TA.AperFunction,Plated,PTH,ComponentDrill
T5C0.0402
; #@! TA.AperFunction,Plated,PTH,ComponentDrill
T6C0.0630
; #@! TA.AperFunction,Plated,PTH,ComponentDrill
T7C0.0984
%
G90
G05
T1
X6.7059Y-4.1398
T2
X5.6299Y-4.3504
X5.6299Y-4.4504
X5.7402Y-4.3504
X5.7402Y-4.4504
T3
X4.2665Y-1.8201
X4.2665Y-1.9201
X4.3665Y-1.8201
X4.3665Y-1.9201
X4.4665Y-1.8201
X4.4665Y-1.9201
X4.5665Y-1.8201
X4.5665Y-1.9201
X4.6665Y-1.8201
X4.6665Y-1.9201
X4.7665Y-1.8201
X4.7665Y-1.9201
X4.8665Y-1.8201
X4.8665Y-1.9201
X4.9665Y-1.8201
X4.9665Y-1.9201
X5.0665Y-1.8201
X5.0665Y-1.9201
X5.1665Y-1.8201
X5.1665Y-1.9201
X5.2665Y-1.8201
X5.2665Y-1.9201
X5.3665Y-1.8201
X5.3665Y-1.9201
X5.4665Y-1.8201
X5.4665Y-1.9201
X5.5665Y-1.8201
X5.5665Y-1.9201
X5.6665Y-1.8201
X5.6665Y-1.9201
X5.7665Y-1.8201
X5.7665Y-1.9201
X5.8665Y-1.8201
X5.8665Y-1.9201
X5.9665Y-1.8201
X5.9665Y-1.9201
X6.0665Y-1.8201
X6.0665Y-1.9201
X6.1665Y-1.8201
X6.1665Y-1.9201
X6.2008Y-4.1516
X6.2008Y-4.311
X6.2008Y-4.4705
X6.2008Y-4.6299
X7.928Y-4.497
X7.928Y-4.597
X7.928Y-4.697
X8.028Y-4.497
X8.028Y-4.597
X8.028Y-4.697
X8.128Y-4.497
X8.128Y-4.597
X8.128Y-4.697
X8.228Y-4.497
X8.228Y-4.597
X8.228Y-4.697
X8.428Y-4.497
X8.428Y-4.597
X8.428Y-4.697
X8.528Y-4.497
X8.528Y-4.597
X8.528Y-4.697
X8.628Y-4.497
X8.628Y-4.597
X8.628Y-4.697
X8.728Y-4.497
X8.728Y-4.597
X8.728Y-4.697
X9.028Y-4.497
X9.028Y-4.597
X9.028Y-4.697
X9.128Y-4.497
X9.128Y-4.597
X9.128Y-4.697
X9.228Y-4.497
X9.228Y-4.597
X9.228Y-4.697
X9.328Y-4.497
X9.328Y-4.597
X9.328Y-4.697
X9.528Y-4.497
X9.528Y-4.597
X9.528Y-4.697
X9.628Y-4.497
X9.628Y-4.597
X9.628Y-4.697
X9.728Y-4.497
X9.728Y-4.597
X9.728Y-4.697
X9.828Y-4.497
X9.828Y-4.597
X9.828Y-4.697
T4
X7.728Y-3.997
X7.728Y-4.097
X7.728Y-4.197
X7.728Y-4.297
X7.728Y-4.397
X7.728Y-4.497
X10.023Y-3.997
X10.023Y-4.097
X10.023Y-4.197
X10.023Y-4.297
X10.023Y-4.397
X10.023Y-4.497
T5
X3.6663Y-2.8028
X3.6663Y-2.9028
X3.6663Y-3.0028
X3.6663Y-3.1028
T6
X7.8031Y-2.7165
X9.9921Y-2.7165
T7
X7.778Y-3.877
X7.778Y-4.627
X9.978Y-3.877
X9.978Y-4.627
M30
